<?xml version="1.0" encoding="utf-8"?>
<svg xmlns="http://www.w3.org/2000/svg" viewBox="0 0 32 32" width="512" height="512">
    <path d="M9 4L9 5L5 5L5 27L27 27L27 5L23 5L23 4L21 4L21 5L11 5L11 4 Z M 7 7L9 7L9 8L11 8L11 7L21 7L21 8L23 8L23 7L25 7L25 9L7 9 Z M 7 11L25 11L25 25L7 25 Z M 12.5 14C11.132813 14 10 15.132813 10 16.5C10 17.867188 11.132813 19 12.5 19C12.785156 19 13 19.214844 13 19.5C13 19.863281 12.9375 20 12.5 20C12.121094 20 12.066406 19.914063 12.0625 19.90625C12.058594 19.898438 12 19.867188 12 19.625L10 19.625C10 20.191406 10.15625 20.832031 10.625 21.3125C11.09375 21.792969 11.773438 22 12.5 22C13.910156 22 15 20.792969 15 19.5C15 18.132813 13.867188 17 12.5 17C12.214844 17 12 16.785156 12 16.5C12 16.214844 12.214844 16 12.5 16C12.769531 16 12.84375 16.058594 12.90625 16.125C12.96875 16.191406 13 16.320313 13 16.40625L15 16.40625C15 15.839844 14.804688 15.253906 14.375 14.78125C13.945313 14.308594 13.257813 14 12.5 14 Z M 18.21875 14L18 14.6875L16.0625 20.6875L16 20.84375L16 22L18 22L18 21.125L18.03125 21L19.96875 21L20 21.125L20 22L22 22L22 20.84375L21.9375 20.6875L20 14.6875L19.78125 14 Z M 19 18.0625L19.3125 19L18.6875 19Z"/>
</svg>