<?xml version="1.0" encoding="utf-8"?>
<svg xmlns="http://www.w3.org/2000/svg" viewBox="0 0 32 32" width="512" height="512">
    <path d="M9 4L9 5L5 5L5 27L27 27L27 5L23 5L23 4L21 4L21 5L11 5L11 4 Z M 7 7L9 7L9 8L11 8L11 7L21 7L21 8L23 8L23 7L25 7L25 9L7 9 Z M 7 11L25 11L25 25L7 25 Z M 8 14L8 15.15625L8.0625 15.3125L10 21.3125L10.21875 22L11.78125 22L12 21.3125L12.5 19.71875L13 21.3125L13.21875 22L14.78125 22L15 21.3125L16.9375 15.3125L17 15.15625L17 14L15 14L15 14.875L14.03125 17.84375L13.5 16.1875L13.28125 15.5L11.71875 15.5L11.5 16.1875L10.96875 17.84375L10 14.875L10 14 Z M 18 14L18 22L23 22L23 20L20 20L20 19L22 19L22 17L20 17L20 16L23 16L23 14Z"/>
</svg>