<?xml version="1.0" encoding="utf-8"?>
<svg xmlns="http://www.w3.org/2000/svg" viewBox="0 0 32 32" width="512" height="512">
    <path d="M9 4L9 5L5 5L5 27L27 27L27 5L23 5L23 4L21 4L21 5L11 5L11 4 Z M 7 7L9 7L9 8L11 8L11 7L21 7L21 8L23 8L23 7L25 7L25 9L7 9 Z M 7 11L25 11L25 25L7 25 Z M 10 14L10 22L12 22L12 17.34375L12.1875 17.59375L13 18.65625L13.8125 17.59375L14 17.34375L14 22L16 22L16 14L14 14L13.6875 14.40625L13 15.3125L12.3125 14.40625L12 14 Z M 19.5 14C18.132813 14 17 15.132813 17 16.5L17 19.46875C17 20.835938 18.132813 21.96875 19.5 21.96875C20.867188 21.96875 22 20.835938 22 19.46875L22 16.5C22 15.132813 20.867188 14 19.5 14 Z M 19.5 16C19.785156 16 20 16.214844 20 16.5L20 19.46875C20 19.753906 19.785156 19.96875 19.5 19.96875C19.214844 19.96875 19 19.753906 19 19.46875L19 16.5C19 16.214844 19.214844 16 19.5 16Z"/>
</svg>