<?xml version="1.0" encoding="utf-8"?>
<svg xmlns="http://www.w3.org/2000/svg" viewBox="0 0 32 32" width="512" height="512">
    <path d="M9 4L9 5L5 5L5 27L27 27L27 5L23 5L23 4L21 4L21 5L11 5L11 4 Z M 7 7L9 7L9 8L11 8L11 7L21 7L21 8L23 8L23 7L25 7L25 9L7 9 Z M 7 11L25 11L25 25L7 25 Z M 11 14L11 16L12 16L12 22L14 22L14 16L15 16L15 14 Z M 16 14L16 19.5C16 20.867188 17.132813 22 18.5 22C19.867188 22 21 20.867188 21 19.5L21 14L19 14L19 19.5C19 19.785156 18.785156 20 18.5 20C18.214844 20 18 19.785156 18 19.5L18 14Z"/>
</svg>