<?xml version="1.0" encoding="utf-8"?>
<svg xmlns="http://www.w3.org/2000/svg" viewBox="0 0 32 32" width="512" height="512">
    <path d="M9 4L9 5L5 5L5 27L27 27L27 5L23 5L23 4L21 4L21 5L11 5L11 4 Z M 7 7L9 7L9 8L11 8L11 7L21 7L21 8L23 8L23 7L25 7L25 9L7 9 Z M 7 11L25 11L25 25L7 25 Z M 13.5 14C12.132813 14 11 15.132813 11 16.5C11 17.867188 12.132813 19 13.5 19C13.785156 19 14 19.214844 14 19.5C14 19.863281 13.9375 20 13.5 20C13.121094 20 13.066406 19.914063 13.0625 19.90625C13.058594 19.898438 13 19.867188 13 19.625L11 19.625C11 20.191406 11.15625 20.832031 11.625 21.3125C12.09375 21.792969 12.773438 22 13.5 22C14.910156 22 16 20.792969 16 19.5C16 18.132813 14.867188 17 13.5 17C13.214844 17 13 16.785156 13 16.5C13 16.214844 13.214844 16 13.5 16C13.769531 16 13.84375 16.058594 13.90625 16.125C13.96875 16.191406 14 16.320313 14 16.40625L16 16.40625C16 15.839844 15.804688 15.253906 15.375 14.78125C14.945313 14.308594 14.257813 14 13.5 14 Z M 17 14L17 19.5C17 20.867188 18.132813 22 19.5 22C20.867188 22 22 20.867188 22 19.5L22 14L20 14L20 19.5C20 19.785156 19.785156 20 19.5 20C19.214844 20 19 19.785156 19 19.5L19 14Z"/>
</svg>