<?xml version="1.0" encoding="utf-8"?>
<svg xmlns="http://www.w3.org/2000/svg" viewBox="0 0 32 32" width="512" height="512">
    <path d="M9 4L9 5L5 5L5 27L27 27L27 5L23 5L23 4L21 4L21 5L11 5L11 4 Z M 7 7L9 7L9 8L11 8L11 7L21 7L21 8L23 8L23 7L25 7L25 9L7 9 Z M 7 11L25 11L25 25L7 25 Z M 11 14L11 22L13 22L13 19L15 19L15 17L13 17L13 16L16 16L16 14 Z M 17 14L17 22L19 22L19 19L20 22L22 22L20.875 18.59375C21.558594 18.144531 22 17.371094 22 16.5C22 15.132813 20.867188 14 19.5 14 Z M 19 16L19.5 16C19.785156 16 20 16.214844 20 16.5C20 16.785156 19.785156 17 19.5 17L19 17Z"/>
</svg>