<?xml version="1.0" encoding="UTF-8"?>
<svg xmlns="http://www.w3.org/2000/svg" viewBox="0 0 120 120" width="120px" height="120px">
    <g id="surface6884183">
        <path style=" stroke:none;fill-rule:nonzero;fill:rgb(0%,0%,0%);fill-opacity:1;"
              d="M 79.484375 0.0664062 C 77.433594 0.0664062 75.382812 0.847656 73.820312 2.40625 L 62.945312 13.28125 L 69.875 20.207031 C 70.253906 20.582031 70.464844 21.089844 70.464844 21.621094 C 70.464844 22.152344 70.253906 22.664062 69.875 23.035156 L 23.027344 69.882812 C 22.640625 70.273438 22.125 70.472656 21.613281 70.472656 C 21.101562 70.472656 20.589844 70.273438 20.199219 69.882812 L 13.273438 62.957031 L 2.398438 73.828125 C -0.722656 76.949219 -0.722656 82.03125 2.398438 85.152344 L 33.976562 116.726562 C 34.367188 117.117188 34.878906 117.316406 35.390625 117.316406 C 35.902344 117.316406 36.417969 117.117188 36.804688 116.726562 L 40.902344 112.632812 L 47.753906 119.484375 C 48.144531 119.875 48.65625 120.070312 49.167969 120.070312 C 49.679688 120.070312 50.195312 119.875 50.585938 119.484375 L 119.472656 50.59375 C 120.253906 49.8125 120.257812 48.542969 119.476562 47.761719 L 112.625 40.910156 L 116.71875 36.8125 C 117.503906 36.03125 117.503906 34.765625 116.71875 33.984375 L 85.144531 2.40625 C 83.582031 0.847656 81.535156 0.0664062 79.484375 0.0664062 Z M 79.484375 8.597656 C 79.996094 8.597656 80.507812 8.796875 80.898438 9.1875 L 86.410156 14.699219 C 87.191406 15.484375 87.191406 16.746094 86.410156 17.53125 L 80.898438 23.039062 C 80.507812 23.429688 79.996094 23.628906 79.484375 23.628906 C 78.972656 23.628906 78.460938 23.429688 78.070312 23.039062 L 72.558594 17.53125 C 71.777344 16.746094 71.777344 15.480469 72.558594 14.699219 L 78.070312 9.1875 C 78.460938 8.796875 78.972656 8.597656 79.484375 8.597656 Z M 79.117188 13.074219 L 76.429688 15.753906 L 79.113281 18.4375 L 81.796875 15.753906 Z M 59.984375 15.90625 L 15.96875 59.925781 L 21.480469 65.4375 L 65.496094 21.417969 Z M 78.105469 26.511719 C 78.617188 26.511719 79.128906 26.707031 79.519531 27.097656 L 80.859375 28.4375 L 82.199219 27.097656 C 82.980469 26.316406 84.25 26.316406 85.03125 27.097656 C 85.8125 27.878906 85.8125 29.144531 85.03125 29.925781 L 83.6875 31.269531 L 86.371094 33.949219 L 87.710938 32.609375 C 88.492188 31.828125 89.761719 31.828125 90.542969 32.609375 C 91.324219 33.390625 91.324219 34.65625 90.542969 35.4375 L 89.199219 36.777344 L 91.882812 39.460938 L 93.222656 38.121094 C 94.003906 37.335938 95.273438 37.335938 96.050781 38.121094 C 96.835938 38.902344 96.835938 40.167969 96.050781 40.949219 L 94.710938 42.289062 L 96.050781 43.632812 C 96.835938 44.414062 96.835938 45.679688 96.050781 46.460938 L 87.785156 54.726562 C 87.410156 55.101562 86.902344 55.3125 86.371094 55.3125 C 85.839844 55.3125 85.328125 55.101562 84.957031 54.726562 L 83.613281 53.386719 L 82.273438 54.726562 C 81.882812 55.117188 81.371094 55.3125 80.859375 55.3125 C 80.347656 55.3125 79.835938 55.117188 79.445312 54.726562 C 78.664062 53.945312 78.664062 52.679688 79.445312 51.898438 L 80.785156 50.558594 L 78.105469 47.875 L 76.761719 49.214844 C 76.375 49.605469 75.859375 49.800781 75.347656 49.800781 C 74.835938 49.800781 74.324219 49.605469 73.933594 49.214844 C 73.152344 48.433594 73.152344 47.167969 73.933594 46.386719 L 75.273438 45.046875 L 72.59375 42.363281 L 71.253906 43.707031 C 70.863281 44.09375 70.351562 44.292969 69.835938 44.292969 C 69.324219 44.292969 68.8125 44.09375 68.421875 43.707031 C 67.640625 42.921875 67.640625 41.65625 68.421875 40.875 L 69.761719 39.535156 L 68.421875 38.195312 C 67.640625 37.410156 67.640625 36.148438 68.421875 35.363281 L 76.6875 27.097656 C 77.078125 26.707031 77.59375 26.511719 78.105469 26.511719 Z M 78.105469 31.34375 L 72.667969 36.777344 L 85.03125 49.140625 L 86.371094 50.484375 L 91.808594 45.046875 Z M 109.789062 43.746094 L 115.226562 49.179688 L 49.167969 115.238281 L 43.734375 109.800781 L 47.792969 105.746094 L 49.132812 107.085938 C 49.523438 107.476562 50.035156 107.671875 50.550781 107.671875 C 51.0625 107.671875 51.574219 107.476562 51.964844 107.085938 C 52.746094 106.304688 52.746094 105.039062 51.964844 104.257812 L 50.625 102.914062 L 53.304688 100.234375 L 54.644531 101.574219 C 55.035156 101.964844 55.546875 102.160156 56.058594 102.160156 C 56.574219 102.160156 57.085938 101.964844 57.476562 101.574219 C 58.257812 100.792969 58.257812 99.527344 57.476562 98.746094 L 56.132812 97.40625 L 58.816406 94.71875 L 60.152344 96.0625 C 60.542969 96.453125 61.054688 96.648438 61.566406 96.648438 C 62.078125 96.648438 62.59375 96.453125 62.980469 96.0625 C 63.765625 95.28125 63.765625 94.015625 62.980469 93.234375 L 61.644531 91.894531 L 64.328125 89.207031 L 65.667969 90.550781 C 66.058594 90.9375 66.570312 91.140625 67.082031 91.140625 C 67.59375 91.140625 68.105469 90.9375 68.496094 90.550781 C 69.28125 89.765625 69.28125 88.503906 68.496094 87.722656 L 67.15625 86.378906 L 69.835938 83.695312 L 71.179688 85.039062 C 71.570312 85.429688 72.082031 85.625 72.59375 85.625 C 73.105469 85.625 73.617188 85.429688 74.007812 85.039062 C 74.789062 84.253906 74.789062 82.992188 74.007812 82.207031 L 72.667969 80.867188 L 75.347656 78.1875 L 76.6875 79.527344 C 77.078125 79.917969 77.59375 80.113281 78.105469 80.113281 C 78.617188 80.113281 79.128906 79.917969 79.519531 79.527344 C 80.300781 78.746094 80.300781 77.480469 79.519531 76.695312 L 78.179688 75.355469 L 80.859375 72.675781 L 82.199219 74.015625 C 82.589844 74.40625 83.101562 74.601562 83.613281 74.601562 C 84.128906 74.601562 84.640625 74.40625 85.03125 74.015625 C 85.8125 73.234375 85.8125 71.96875 85.03125 71.1875 L 83.691406 69.84375 L 86.371094 67.164062 L 87.710938 68.503906 C 88.101562 68.894531 88.613281 69.089844 89.125 69.089844 C 89.636719 69.089844 90.152344 68.894531 90.542969 68.503906 C 91.324219 67.722656 91.324219 66.457031 90.542969 65.675781 L 89.199219 64.335938 L 91.882812 61.652344 L 93.222656 62.992188 C 93.613281 63.382812 94.125 63.578125 94.636719 63.578125 C 95.148438 63.578125 95.660156 63.382812 96.050781 62.992188 C 96.835938 62.210938 96.835938 60.945312 96.050781 60.164062 L 94.710938 58.824219 L 97.394531 56.140625 L 98.734375 57.484375 C 99.125 57.871094 99.636719 58.070312 100.148438 58.070312 C 100.660156 58.070312 101.171875 57.871094 101.5625 57.484375 C 102.34375 56.699219 102.34375 55.433594 101.5625 54.652344 L 100.222656 53.3125 L 102.902344 50.632812 L 104.246094 51.972656 C 104.632812 52.363281 105.148438 52.558594 105.660156 52.558594 C 106.171875 52.558594 106.683594 52.363281 107.074219 51.972656 C 107.855469 51.1875 107.855469 49.925781 107.074219 49.140625 L 105.734375 47.800781 Z M 62.945312 47.179688 C 63.460938 47.179688 63.972656 47.375 64.363281 47.765625 C 65.144531 48.546875 65.144531 49.8125 64.363281 50.597656 L 63.019531 51.9375 L 65.703125 54.617188 L 67.046875 53.277344 C 67.828125 52.496094 69.097656 52.496094 69.875 53.277344 C 70.660156 54.058594 70.660156 55.324219 69.875 56.105469 L 68.53125 57.449219 L 71.21875 60.128906 L 72.558594 58.789062 C 73.339844 58.003906 74.605469 58.003906 75.386719 58.789062 C 76.171875 59.570312 76.171875 60.835938 75.386719 61.617188 L 74.042969 62.957031 L 75.382812 64.300781 C 76.167969 65.082031 76.167969 66.347656 75.382812 67.128906 L 67.117188 75.394531 C 66.726562 75.785156 66.214844 75.980469 65.703125 75.980469 C 65.191406 75.980469 64.675781 75.785156 64.289062 75.394531 L 62.945312 74.054688 L 61.605469 75.394531 C 61.214844 75.785156 60.703125 75.980469 60.191406 75.980469 C 59.679688 75.980469 59.167969 75.785156 58.777344 75.394531 C 57.992188 74.613281 57.992188 73.347656 58.777344 72.566406 L 60.117188 71.226562 L 57.4375 68.542969 L 56.09375 69.882812 C 55.703125 70.273438 55.191406 70.472656 54.679688 70.472656 C 54.167969 70.472656 53.65625 70.273438 53.265625 69.882812 C 52.484375 69.101562 52.484375 67.835938 53.265625 67.054688 L 54.605469 65.714844 L 51.925781 63.03125 L 50.585938 64.375 C 50.195312 64.765625 49.679688 64.960938 49.167969 64.960938 C 48.65625 64.960938 48.144531 64.765625 47.753906 64.375 C 46.972656 63.589844 46.972656 62.324219 47.753906 61.542969 L 49.09375 60.203125 L 47.753906 58.863281 C 46.972656 58.078125 46.972656 56.816406 47.753906 56.03125 L 56.019531 47.765625 C 56.769531 47.015625 58.101562 47.015625 58.851562 47.765625 L 60.191406 49.105469 L 61.53125 47.765625 C 61.921875 47.375 62.433594 47.179688 62.945312 47.179688 Z M 57.789062 52.128906 L 52.351562 57.5625 L 66.054688 71.265625 L 71.492188 65.828125 Z M 36.765625 67.84375 C 37.28125 67.84375 37.792969 68.039062 38.183594 68.429688 L 39.527344 69.769531 L 40.867188 68.429688 C 41.648438 67.648438 42.917969 67.648438 43.699219 68.429688 C 44.480469 69.214844 44.480469 70.476562 43.699219 71.261719 L 42.351562 72.601562 L 45.039062 75.28125 L 46.378906 73.941406 C 47.160156 73.160156 48.429688 73.160156 49.207031 73.941406 C 49.992188 74.722656 49.992188 75.988281 49.207031 76.769531 L 47.867188 78.113281 L 50.550781 80.792969 L 51.890625 79.453125 C 52.671875 78.671875 53.9375 78.671875 54.71875 79.453125 C 55.5 80.234375 55.5 81.5 54.71875 82.28125 L 53.378906 83.621094 L 54.71875 84.964844 C 55.09375 85.339844 55.304688 85.847656 55.304688 86.378906 C 55.304688 86.910156 55.09375 87.417969 54.71875 87.792969 L 46.453125 96.058594 C 46.0625 96.449219 45.550781 96.644531 45.039062 96.644531 C 44.527344 96.644531 44.011719 96.449219 43.625 96.058594 L 42.28125 94.71875 L 40.9375 96.058594 C 40.546875 96.449219 40.039062 96.644531 39.527344 96.644531 C 39.015625 96.644531 38.503906 96.449219 38.113281 96.058594 C 37.332031 95.28125 37.332031 94.011719 38.113281 93.230469 L 39.453125 91.890625 L 36.765625 89.207031 L 35.425781 90.550781 C 35.035156 90.9375 34.523438 91.136719 34.011719 91.136719 C 33.5 91.136719 32.988281 90.9375 32.597656 90.550781 C 31.816406 89.765625 31.816406 88.5 32.597656 87.71875 L 33.941406 86.378906 L 31.257812 83.695312 L 29.914062 85.039062 C 29.527344 85.429688 29.011719 85.625 28.5 85.625 C 27.988281 85.625 27.476562 85.429688 27.085938 85.039062 C 26.304688 84.253906 26.304688 82.992188 27.085938 82.207031 L 28.425781 80.867188 L 27.085938 79.527344 C 26.710938 79.152344 26.5 78.640625 26.5 78.113281 C 26.5 77.582031 26.710938 77.070312 27.085938 76.695312 L 35.355469 68.429688 C 35.746094 68.039062 36.253906 67.84375 36.765625 67.84375 Z M 16.101562 71.976562 C 16.613281 71.976562 17.125 72.175781 17.519531 72.566406 L 23.027344 78.078125 C 23.40625 78.453125 23.617188 78.960938 23.617188 79.492188 C 23.617188 80.023438 23.40625 80.53125 23.027344 80.90625 L 17.519531 86.417969 C 17.128906 86.808594 16.617188 87.003906 16.101562 87.003906 C 15.589844 87.003906 15.078125 86.808594 14.6875 86.417969 L 9.175781 80.90625 C 8.394531 80.125 8.394531 78.859375 9.175781 78.078125 L 14.6875 72.566406 C 15.078125 72.175781 15.589844 71.976562 16.101562 71.976562 Z M 36.820312 72.597656 L 31.386719 78.035156 L 45.089844 91.738281 L 50.527344 86.300781 Z M 15.734375 76.449219 L 13.054688 79.132812 L 15.734375 81.8125 L 18.417969 79.132812 Z M 15.734375 76.449219 "/>
    </g>
</svg>
