<?xml version="1.0" encoding="utf-8"?>
<svg xmlns="http://www.w3.org/2000/svg" viewBox="0 0 24 24" width="480" height="480">
    <path d="M12 0C10.964844 0 9.96875 0.144531 9.03125 0.4375C8.777344 0.515625 8.527344 0.621094 8.28125 0.71875C8.121094 0.78125 7.96875 0.867188 7.8125 0.9375C7.730469 0.976563 7.644531 0.992188 7.5625 1.03125C7.445313 1.089844 7.332031 1.15625 7.21875 1.21875C7.105469 1.28125 6.988281 1.339844 6.875 1.40625C6.648438 1.542969 6.433594 1.691406 6.21875 1.84375C6.101563 1.925781 5.988281 2.007813 5.875 2.09375C5.792969 2.15625 5.707031 2.214844 5.625 2.28125C5.613281 2.289063 5.605469 2.304688 5.59375 2.3125C5.542969 2.355469 5.488281 2.394531 5.4375 2.4375C5.28125 2.574219 5.148438 2.730469 5 2.875C4.980469 2.894531 4.957031 2.917969 4.9375 2.9375C4.785156 3.089844 4.640625 3.246094 4.5 3.40625C4.351563 3.574219 4.199219 3.730469 4.0625 3.90625C3.988281 4.003906 3.945313 4.121094 3.875 4.21875C3.777344 4.355469 3.683594 4.484375 3.59375 4.625C3.566406 4.667969 3.527344 4.707031 3.5 4.75C3.402344 4.90625 3.308594 5.054688 3.21875 5.21875C3.070313 5.488281 2.933594 5.746094 2.8125 6.03125C2.804688 6.050781 2.789063 6.074219 2.78125 6.09375C2.6875 6.316406 2.609375 6.550781 2.53125 6.78125C2.457031 7.003906 2.402344 7.238281 2.34375 7.46875C2.335938 7.5 2.320313 7.53125 2.3125 7.5625C2.277344 7.707031 2.25 7.851563 2.21875 8C2.085938 8.648438 2 9.3125 2 10C2 15.523438 6.476563 20 12 20C17.523438 20 22 15.523438 22 10C22 9.3125 21.914063 8.648438 21.78125 8C21.75 7.851563 21.722656 7.707031 21.6875 7.5625C21.679688 7.53125 21.664063 7.5 21.65625 7.46875C21.597656 7.238281 21.542969 7.003906 21.46875 6.78125C21.390625 6.550781 21.3125 6.316406 21.21875 6.09375C21.210938 6.074219 21.195313 6.050781 21.1875 6.03125C21.066406 5.746094 20.929688 5.488281 20.78125 5.21875C20.675781 5.023438 20.554688 4.84375 20.4375 4.65625C20.386719 4.574219 20.335938 4.488281 20.28125 4.40625C20.042969 4.054688 19.78125 3.726563 19.5 3.40625C19.359375 3.246094 19.214844 3.089844 19.0625 2.9375C19.03125 2.90625 19 2.875 18.96875 2.84375C18.773438 2.652344 18.585938 2.457031 18.375 2.28125C17.980469 1.957031 17.566406 1.667969 17.125 1.40625C17.011719 1.339844 16.894531 1.28125 16.78125 1.21875C16.667969 1.15625 16.554688 1.089844 16.4375 1.03125C16.261719 0.945313 16.089844 0.859375 15.90625 0.78125C15.847656 0.757813 15.777344 0.742188 15.71875 0.71875C15.472656 0.621094 15.222656 0.515625 14.96875 0.4375C14.03125 0.144531 13.035156 0 12 0 Z M 12 1.5C12.8125 1.5 13.597656 1.628906 14.34375 1.84375C13.796875 2.542969 12.957031 3 12 3C11.042969 3 10.203125 2.542969 9.65625 1.84375C10.402344 1.628906 11.1875 1.5 12 1.5 Z M 12 4C15.3125 4 18 6.6875 18 10C18 13.3125 15.3125 16 12 16C8.6875 16 6 13.3125 6 10C6 6.6875 8.6875 4 12 4 Z M 12 6C11.359375 6 10.757813 6.167969 10.21875 6.4375C10.589844 6.710938 10.84375 7.160156 10.84375 7.65625C10.84375 8.484375 10.171875 9.15625 9.34375 9.15625C8.910156 9.15625 8.523438 8.949219 8.25 8.65625C8.101563 9.074219 8 9.527344 8 10C8 12.210938 9.789063 14 12 14C14.210938 14 16 12.210938 16 10C16 7.789063 14.210938 6 12 6 Z M 9 20.5625L9 22L5.5625 22C5.25 22 5 22.25 5 22.5625L5 24L19 24L19 22.5625C19 22.25 18.75 22 18.4375 22L15 22L15 20.5625C14.046875 20.832031 13.039063 21 12 21C10.960938 21 9.953125 20.832031 9 20.5625Z"/>
</svg>