<?xml version="1.0" encoding="utf-8"?>
<svg xmlns="http://www.w3.org/2000/svg" viewBox="0 0 32 32" width="100" height="100">
    <path d="M3 4L3 6L5 6C5.5650302 6 6 6.4349698 6 7L6 8L6 24L6 27L8 27L8 24L10 24L10 26L25 26L25 24L26 24C27.64497 24 29 22.64497 29 21L29 11C29 9.3550302 27.64497 8 26 8L8 8L8 7C8 5.3550302 6.6449698 4 5 4L3 4 z M 8 10L26 10C26.56503 10 27 10.43497 27 11L27 21C27 21.56503 26.56503 22 26 22L8 22L8 10 z M 21 11C18.244499 11 16 13.244499 16 16C16 18.755501 18.244499 21 21 21C23.755501 21 26 18.755501 26 16C26 13.244499 23.755501 11 21 11 z M 10 12L10 14L14 14L14 12L10 12 z M 21 12C21.841658 12 22.618585 12.260086 23.261719 12.701172C22.909154 12.965634 22.506867 13.310011 22.029297 13.763672C21.771829 14.00825 21.518555 14.267067 21.273438 14.525391C21.187918 14.240095 21.100859 13.948616 21.029297 13.658203C20.846962 12.918251 20.728512 12.177689 20.71875 12.027344C20.813303 12.020709 20.90371 12 21 12 z M 19.261719 12.412109C19.31441 12.852679 19.416116 13.375964 19.574219 14.017578C19.657974 14.357475 19.75601 14.70252 19.857422 15.039062C19.563907 14.972921 19.263296 14.902957 18.972656 14.822266C18.230402 14.61619 17.508437 14.347471 17.396484 14.291016C17.786015 13.468999 18.443525 12.80827 19.261719 12.412109 z M 24.322266 13.769531C24.749864 14.406347 25 15.172481 25 16C25 16.094965 24.979111 16.184066 24.972656 16.277344C24.567174 16.110126 24.078877 15.943351 23.464844 15.765625C23.127842 15.668083 22.784086 15.579947 22.445312 15.501953C22.648191 15.283253 22.834282 15.068356 23.0625 14.851562C23.611341 14.330199 24.178651 13.868326 24.322266 13.769531 z M 10 15L10 17L14 17L14 15L10 15 z M 17.025391 15.751953C17.437956 15.925681 17.939388 16.091869 18.572266 16.267578C18.919888 16.36409 19.264647 16.427384 19.611328 16.5C19.401826 16.730282 19.181724 16.966264 18.957031 17.189453C18.414276 17.728576 17.834468 18.211548 17.722656 18.289062C17.269463 17.640487 17 16.854204 17 16C17 15.915035 17.020215 15.835576 17.025391 15.751953 z M 22.158203 16.978516C22.453376 17.048527 22.755718 17.122193 23.048828 17.207031C23.758094 17.412322 24.407475 17.656842 24.589844 17.738281C24.205331 18.532895 23.568574 19.172791 22.779297 19.566406C22.717936 19.127479 22.613165 18.622907 22.453125 18.003906C22.364633 17.661636 22.262959 17.31613 22.158203 16.978516 z M 20.742188 17.488281C20.832695 17.780562 20.924861 18.080729 21.001953 18.378906C21.186271 19.091808 21.306178 19.775558 21.328125 19.966797C21.218134 19.975809 21.112382 20 21 20C20.185946 20 19.433353 19.754752 18.802734 19.339844C19.159952 19.065355 19.550018 18.714456 20.013672 18.253906C20.261932 18.007308 20.505858 17.746742 20.742188 17.488281 z M 10 18L10 20L14 20L14 18L10 18 z"
          fill="#010100"/>
</svg>